Coordinates
datacolumns 6
datarows 91
range 0 0.9
inDegrees=yes
Units are S.I. units (second, meters, Newtons, ...)
If the header above contains a line with 'inDegrees', this indicates whether rotational values are in degrees (yes) or radians (no).
endheader
time	foot_tx	hip_flexion_r	knee_angle_r	ankle_angle_r	lumbar
0	0.29578637	59.91087229	-60.06895688	-4.59732396	-11.70650861
0.01	0.29579878	59.91250283	-60.07036303	-4.59678197	-11.70794947
0.02	0.29580865	59.91424376	-60.0720265	-4.59603762	-11.70960674
0.03	0.29581953	59.91437011	-60.07185831	-4.59567585	-11.70969769
0.04	0.29583111	59.91823193	-60.07248035	-4.59651546	-11.71327513
0.05	0.29583602	59.92087894	-60.07109073	-4.59772282	-11.71593027
0.06	0.2958513	59.92365689	-60.06462747	-4.6028022	-11.71902555
0.07	0.29584226	59.92778942	-60.06132774	-4.60485142	-11.72243758
0.08	0.29585151	59.93334179	-60.04938609	-4.61382649	-11.72543696
0.09	0.29583032	59.94004263	-60.04242384	-4.61839863	-11.72907483
0.1	0.29582986	59.94898714	-60.02355802	-4.63139796	-11.72732445
0.11	0.29580736	59.96508944	-60.00756336	-4.64238773	-11.72070695
0.12	0.29577826	59.98850291	-59.99044953	-4.65435347	-11.70593534
0.13	0.29572236	60.05229739	-59.98118231	-4.66287152	-11.64489798
0.14	0.29567173	60.06350002	-59.96890549	-4.67031723	-11.64627269
0.15	0.29562905	60.08183201	-59.95401382	-4.67976206	-11.63727444
0.16	0.29556528	60.15373626	-59.95140418	-4.68365578	-11.56309277
0.17	0.29551005	60.1581459	-59.94905574	-4.68267799	-11.56442116
0.18	0.29546615	60.2103486	-59.95119963	-4.6825489	-11.50860492
0.19	0.29541982	60.21248117	-59.95974748	-4.67357992	-11.50385802
0.2	0.29538643	60.24942956	-59.97403422	-4.66407418	-11.45917304
0.21	0.2953587	60.24864731	-59.99384357	-4.64817086	-11.45388611
0.22	0.29534158	60.24761746	-60.01825556	-4.62943133	-11.44566191
0.23	0.29533537	60.24618453	-60.04576597	-4.60909034	-11.43630791
0.24	0.2953404	60.24491108	-60.07511238	-4.58823883	-11.42692907
0.25	0.2953577	60.24413125	-60.10458779	-4.56821428	-11.41835342
0.26	0.29538592	60.24454053	-60.13251774	-4.55002033	-11.41068624
0.27	0.29543453	60.24731768	-60.15803469	-4.53601263	-11.40752381
0.28	0.29549144	60.24991282	-60.17923754	-4.52478159	-11.4057515
0.29	0.29556154	60.25706632	-60.19658747	-4.51840997	-11.41003551
0.3	0.2956546	60.26841822	-60.20543376	-4.51981664	-11.42004448
0.31	0.29574176	60.28565794	-60.21441649	-4.52218808	-11.43605668
0.32	0.29582958	60.3100672	-60.22170685	-4.5270205	-11.4589892
0.33	0.29591503	60.34316578	-60.22740471	-4.53409739	-11.49011419
0.34	0.29600548	60.33342961	-60.22547338	-4.54394764	-11.59196569
0.35	0.29607611	60.38836893	-60.22882744	-4.55413275	-11.64093814
0.36	0.29618258	60.43979679	-60.21496682	-4.57658904	-11.71809388
0.37	0.29623366	60.45393546	-60.21429281	-4.58521184	-11.86801872
0.38	0.2962665	60.54884349	-60.21627171	-4.59565024	-11.95218173
0.39	0.29631724	60.58828607	-60.20478141	-4.61042854	-12.13297204
0.4	0.29632421	60.7141912	-60.20613279	-4.61890416	-12.24399818
0.41	0.29634596	60.78260487	-60.19503441	-4.62977513	-12.45737539
0.42	0.29632186	60.94315097	-60.19705171	-4.63335996	-12.59757702
0.43	0.29628776	61.04735458	-60.19726548	-4.63058003	-12.84029579
0.44	0.29624602	61.24443956	-60.19792769	-4.6295027	-13.01071952
0.45	0.29616204	61.39842425	-60.2092255	-4.61263465	-13.2699719
0.46	0.29608857	61.62706366	-60.21894101	-4.59786203	-13.4783971
0.47	0.29599501	61.83845132	-60.23195855	-4.57398441	-13.74746443
0.48	0.29588639	62.10999679	-60.2528689	-4.54354767	-13.98551579
0.49	0.29576552	62.39985329	-60.27869289	-4.50557628	-14.24367679
0.5	0.29563102	62.7104598	-60.30913078	-4.4602464	-14.52102033
0.51	0.29549583	63.04458777	-60.3426188	-4.4095126	-14.81562376
0.52	0.2953581	63.4044946	-60.3778387	-4.3542459	-15.12766303
0.53	0.29522099	63.79293087	-60.41246279	-4.29634892	-15.45678646
0.54	0.29508624	64.21376732	-60.44373332	-4.23797456	-15.80170515
0.55	0.29495839	64.71512864	-60.46761829	-4.1851711	-16.10917472
0.56	0.29484839	65.24775715	-60.47904906	-4.13868967	-16.44010782
0.57	0.29474232	65.83885767	-60.47602455	-4.10053595	-16.76652816
0.58	0.29466368	66.4938859	-60.44613061	-4.07986845	-17.08486411
0.59	0.29459484	67.2249794	-60.39362852	-4.0737546	-17.38191564
0.6	0.29454057	68.038023	-60.30994036	-4.08719122	-17.65271303
0.61	0.29449624	68.9393056	-60.19405853	-4.12010146	-17.88902557
0.62	0.29446719	69.92905054	-60.04412275	-4.1726465	-18.08758332
0.63	0.29444328	71.02078731	-59.86070774	-4.24306367	-18.22907651
0.64	0.29442949	72.20795686	-59.64559577	-4.32811321	-18.31466811
0.65	0.29441977	73.49153596	-59.40427441	-4.42191467	-18.33540028
0.66	0.29441474	74.86485584	-59.14316162	-4.51782165	-18.28945906
0.67	0.29441442	76.32086645	-58.87114548	-4.60747667	-18.17449941
0.68	0.2944175	77.842327	-58.59852205	-4.68128419	-17.99972295
0.69	0.29442099	79.41892426	-58.33648688	-4.7294701	-17.76578021
0.7	0.2944404	81.03727724	-58.09536957	-4.74468424	-17.47624933
0.71	0.29446059	82.67297883	-57.88706496	-4.71586111	-17.15013478
0.72	0.2945135	84.3210988	-57.71124523	-4.6444501	-16.78094056
0.73	0.29455319	85.95090332	-57.59502847	-4.50999727	-16.39746509
0.74	0.2946327	87.55441754	-57.52483066	-4.3240408	-15.99759623
0.75	0.29474423	89.12306339	-57.50661353	-4.0829695	-15.58295888
0.76	0.29488801	90.6306972	-57.54667049	-3.78440271	-15.17657954
0.77	0.29507535	92.07818815	-57.64004307	-3.43409164	-14.76864129
0.78	0.2953087	93.45245281	-57.78614794	-3.0347907	-14.36720782
0.79	0.29558871	94.74111216	-57.98495321	-2.58943122	-13.98036971
0.8	0.29591476	95.94433734	-58.23308722	-2.10333562	-13.60061608
0.81	0.29628208	97.04095967	-58.53466431	-1.57691212	-13.24942583
0.82	0.29668591	98.03184981	-58.88523199	-1.01547166	-12.91964359
0.83	0.29711917	98.90970653	-59.28327519	-0.42241072	-12.61594473
0.84	0.29757676	99.67170511	-59.72407311	0.19779006	-12.33672462
0.85	0.29804796	100.3014778	-60.20831494	0.84431788	-12.10206332
0.86	0.29852916	100.8058796	-60.72399031	1.50977565	-11.89740151
0.87	0.29901632	101.1770879	-61.26486636	2.19046525	-11.73110751
0.88	0.29950297	101.4152524	-61.81928113	2.88059869	-11.60095663
0.89	0.29998458	101.4987522	-62.37748794	3.57672946	-11.53370785
0.9	0.30046324	101.5044652	-62.91778769	4.26471345	-11.42947442
